<svg xmlns="http://www.w3.org/2000/svg" width="1280" height="360" viewBox="0 0 1280 360" role="img" aria-labelledby="title desc">
  <title id="title">gwatch diff hunk banner</title>
  <desc id="desc">A transparent gwatch banner with a compact diff hunk graphic and outlined JetBrains Mono text.</desc>
  <rect x="110" y="74" width="310" height="212" rx="14" fill="#151a21" stroke="#303846" stroke-width="3"/>
  <rect x="135" y="106" width="72" height="18" rx="4" fill="#64748b"/>
  <rect x="135" y="144" width="248" height="28" rx="6" fill="#3f1f25"/>
  <path fill="#f87171" d="M154.64 158.928V155.912H162.96V158.928Z"/>
  <rect x="135" y="184" width="248" height="28" rx="6" fill="#123524"/>
  <path fill="#4ade80" d="M157.188 203.608V198.928H152.534V195.912H157.188V191.232H160.412V195.912H165.066V198.928H160.412V203.608Z"/>
  <rect x="135" y="224" width="188" height="18" rx="4" fill="#334155"/>
  <path fill="#f8fafc" d="M484.288 196.92000000000002V187.144H498.858Q502.994 187.144 505.25 184.935Q507.506 182.726 507.506 178.966V175.864L507.694 167.78Q506.096 172.104 502.571 174.501Q499.046 176.898 493.97 176.898Q486.074 176.898 481.421 171.587Q476.768 166.276 476.768 157.15800000000002V147.1Q476.768 138.076 481.421 132.718Q486.074 127.36 493.97 127.36Q499.046 127.36 502.571 129.757Q506.096 132.154 507.694 136.572V128.3H519.162V179.248Q519.162 187.426 513.7570000000001 192.173Q508.352 196.92000000000002 499.046 196.92000000000002ZM497.918 166.84Q502.43 166.84 504.921 164.161Q507.412 161.482 507.412 156.688V147.664Q507.412 142.87 504.921 140.191Q502.43 137.512 497.918 137.512Q493.406 137.512 490.962 140.097Q488.51800000000003 142.68200000000002 488.51800000000003 147.288V157.064Q488.51800000000003 161.67000000000002 490.962 164.255Q493.406 166.84 497.918 166.84Z"/>
  <path fill="#f8fafc" d="M535.9879999999999 180.0 527.904 128.3H537.2099999999999L541.816 159.978Q542.192 162.892 542.4739999999999 166.276Q542.756 169.66 542.944 171.916Q543.038 169.66 543.3199999999999 166.276Q543.602 162.892 544.1659999999999 159.978L549.8059999999999 128.3H559.582L565.034 159.978Q565.598 162.892 565.9269999999999 166.32299999999998Q566.256 169.754 566.444 172.01Q566.632 169.754 566.867 166.32299999999998Q567.102 162.892 567.572 159.978L572.2719999999999 128.3H581.2959999999999L573.024 180.0H560.898L556.01 148.13400000000001Q555.54 145.502 555.164 142.071Q554.788 138.64 554.6 136.478Q554.506 138.64 554.0360000000001 142.071Q553.566 145.502 553.1899999999999 148.13400000000001L548.114 180.0Z"/>
  <path fill="#f8fafc" d="M605.266 180.94Q597.37 180.94 592.8109999999999 176.475Q588.252 172.01 588.252 164.772Q588.252 157.252 593.422 152.787Q598.592 148.322 607.616 148.322H620.212V144.656Q620.212 136.85399999999998 611.0939999999999 136.85399999999998Q606.958 136.85399999999998 604.5139999999999 138.452Q602.0699999999999 140.05 601.788 142.964H590.5079999999999Q590.8839999999999 136.008 596.3829999999999 131.684Q601.882 127.36 611.188 127.36Q621.058 127.36 626.51 131.966Q631.962 136.572 631.962 144.938V180.0H620.4939999999999V170.318Q619.836 175.3 615.794 178.12Q611.752 180.94 605.266 180.94ZM609.026 171.352Q614.1959999999999 171.352 617.204 168.81400000000002Q620.212 166.276 620.212 162.046V155.936H608.18Q604.3259999999999 155.936 602.0699999999999 158.098Q599.814 160.26 599.814 163.644Q599.814 167.122 602.211 169.23700000000002Q604.608 171.352 609.026 171.352Z"/>
  <path fill="#f8fafc" d="M672.5699999999999 180.0Q665.3319999999999 180.0 661.0549999999998 175.817Q656.7779999999999 171.63400000000001 656.7779999999999 164.49V138.922H642.4899999999999V128.3H656.7779999999999V113.73H668.622V128.3H689.208V138.922H668.622V164.208Q668.622 166.464 669.891 167.921Q671.16 169.378 673.4159999999999 169.378H688.7379999999999V180.0Z"/>
  <path fill="#f8fafc" d="M724.646 180.94Q717.9719999999999 180.94 713.0369999999998 178.449Q708.1019999999999 175.958 705.3759999999999 171.399Q702.6499999999999 166.84 702.6499999999999 160.636V147.664Q702.6499999999999 141.46 705.3759999999999 136.901Q708.1019999999999 132.34199999999998 713.0369999999998 129.851Q717.9719999999999 127.36 724.646 127.36Q734.3279999999999 127.36 740.2029999999999 132.389Q746.0779999999999 137.418 746.3599999999999 146.066H734.7979999999999Q734.5159999999998 142.024 731.7429999999999 139.815Q728.9699999999999 137.606 724.646 137.606Q719.8519999999999 137.606 717.1259999999999 140.191Q714.3999999999999 142.776 714.3999999999999 147.57V160.636Q714.3999999999999 165.43 717.1259999999999 168.062Q719.8519999999999 170.694 724.646 170.694Q729.0639999999999 170.694 731.7899999999998 168.485Q734.5159999999998 166.276 734.7979999999999 162.234H746.3599999999999Q746.0779999999999 170.882 740.2029999999999 175.911Q734.3279999999999 180.94 724.646 180.94Z"/>
  <path fill="#f8fafc" d="M759.2379999999999 180.0V111.38H770.9879999999998V128.3L770.7059999999999 137.888Q771.6459999999998 133.0 775.3119999999999 130.18Q778.9779999999998 127.36 784.6179999999999 127.36Q792.2319999999999 127.36 796.7909999999999 132.436Q801.3499999999999 137.512 801.3499999999999 146.066V180.0H789.5999999999999V147.476Q789.5999999999999 142.68200000000002 787.1089999999999 140.097Q784.6179999999999 137.512 780.3879999999999 137.512Q775.9699999999999 137.512 773.4789999999998 140.144Q770.9879999999998 142.776 770.9879999999998 147.664V180.0Z"/>
  <path fill="#94a3b8" d="M485.503 229.0Q483.289 229.0 481.9525 227.67700000000002Q480.616 226.354 480.616 224.194V212.341H475.729V209.29H483.991V224.113Q483.991 224.95 484.46349999999995 225.4495Q484.936 225.949 485.746 225.949H490.093V229.0Z"/>
  <path fill="#94a3b8" d="M493.252 229.0V225.949H498.328V217.201H493.792V214.15H501.703V225.949H506.26599999999996V229.0ZM499.78599999999994 211.666Q498.76 211.666 498.16599999999994 211.1395Q497.57199999999995 210.613 497.57199999999995 209.722Q497.57199999999995 208.831 498.16599999999994 208.3045Q498.76 207.778 499.78599999999994 207.778Q500.81199999999995 207.778 501.40599999999995 208.3045Q501.99999999999994 208.831 501.99999999999994 209.722Q501.99999999999994 210.613 501.40599999999995 211.1395Q500.81199999999995 211.666 499.78599999999994 211.666Z"/>
  <path fill="#94a3b8" d="M513.367 229.0 508.37199999999996 214.15H511.909L514.771 223.168Q515.0409999999999 223.978 515.2435 224.8015Q515.446 225.625 515.5269999999999 226.219Q515.635 225.625 515.8105 224.8015Q515.986 223.978 516.2289999999999 223.195L519.064 214.15H522.6279999999999L517.66 229.0Z"/>
  <path fill="#94a3b8" d="M531.727 229.27Q529.837 229.27 528.433 228.541Q527.029 227.812 526.2595 226.4755Q525.49 225.139 525.49 223.33V219.82Q525.49 218.011 526.2595 216.6745Q527.029 215.338 528.433 214.60899999999998Q529.837 213.88 531.727 213.88Q533.59 213.88 534.9805 214.60899999999998Q536.371 215.338 537.1405 216.64749999999998Q537.91 217.957 537.91 219.712V222.412H528.73V223.438Q528.73 224.95 529.513 225.71949999999998Q530.296 226.489 531.727 226.489Q532.78 226.489 533.5225 226.1245Q534.265 225.76 534.4 225.058H537.748Q537.397 226.975 535.75 228.1225Q534.1030000000001 229.27 531.727 229.27ZM528.73 219.712V220.225L534.6700000000001 220.198V219.685Q534.6700000000001 218.14600000000002 533.914 217.30900000000003Q533.158 216.472 531.727 216.472Q530.2420000000001 216.472 529.4860000000001 217.3225Q528.73 218.173 528.73 219.712Z"/>
  <path fill="#94a3b8" d="M558.7540000000001 229.0 556.4320000000001 214.15H559.1050000000001L560.4280000000001 223.249Q560.5360000000001 224.086 560.6170000000001 225.058Q560.6980000000001 226.03 560.7520000000001 226.678Q560.7790000000001 226.03 560.8600000000001 225.058Q560.9410000000001 224.086 561.1030000000001 223.249L562.7230000000001 214.15H565.5310000000001L567.0970000000001 223.249Q567.2590000000001 224.086 567.3535000000002 225.07150000000001Q567.4480000000001 226.057 567.5020000000001 226.705Q567.5560000000002 226.057 567.6235000000001 225.07150000000001Q567.6910000000001 224.086 567.8260000000001 223.249L569.1760000000002 214.15H571.7680000000001L569.3920000000002 229.0H565.9090000000001L564.5050000000001 219.847Q564.3700000000001 219.091 564.2620000000002 218.1055Q564.1540000000001 217.12 564.1000000000001 216.499Q564.0730000000001 217.12 563.9380000000001 218.1055Q563.8030000000001 219.091 563.6950000000002 219.847L562.2370000000001 229.0Z"/>
  <path fill="#94a3b8" d="M580.3000000000002 229.243Q577.4380000000001 229.243 575.7640000000001 227.6365Q574.0900000000001 226.03 574.0900000000001 223.303V219.847Q574.0900000000001 217.093 575.7640000000001 215.5Q577.4380000000001 213.907 580.3000000000002 213.907Q583.1620000000001 213.907 584.8360000000001 215.5Q586.5100000000001 217.093 586.5100000000001 219.847V223.303Q586.5100000000001 226.03 584.8360000000001 227.6365Q583.1620000000001 229.243 580.3000000000002 229.243ZM580.3000000000002 226.3Q581.6500000000002 226.3 582.3925000000002 225.5575Q583.1350000000001 224.815 583.1350000000001 223.411V219.739Q583.1350000000001 218.335 582.3925000000002 217.5925Q581.6500000000002 216.85 580.3000000000002 216.85Q578.9500000000002 216.85 578.2075000000002 217.5925Q577.4650000000001 218.335 577.4650000000001 219.739V223.411Q577.4650000000001 224.815 578.2075000000002 225.5575Q578.9500000000002 226.3 580.3000000000002 226.3Z"/>
  <path fill="#94a3b8" d="M591.0190000000002 229.0V214.15H594.3130000000002V217.039Q594.5830000000002 215.581 595.6495000000002 214.7305Q596.7160000000002 213.88 598.4170000000003 213.88Q600.6850000000002 213.88 601.9540000000002 215.338Q603.2230000000002 216.796 603.2230000000002 219.415V220.819H599.8480000000002V219.577Q599.8480000000002 218.227 599.1460000000002 217.5115Q598.4440000000002 216.796 597.1480000000003 216.796Q595.7980000000002 216.796 595.0960000000002 217.606Q594.3940000000002 218.416 594.3940000000002 219.901V229.0Z"/>
  <path fill="#94a3b8" d="M606.8140000000003 229.0V209.29H610.1890000000003V219.982H612.5650000000003L616.1020000000002 214.15H619.8550000000002L615.4540000000003 221.332L620.0170000000003 229.0H616.1830000000002L612.5650000000003 222.844H610.1890000000003V229.0Z"/>
  <path fill="#94a3b8" d="M622.8520000000003 229.0V225.949H627.9280000000003V217.201H623.3920000000003V214.15H631.3030000000003V225.949H635.8660000000003V229.0ZM629.3860000000003 211.666Q628.3600000000004 211.666 627.7660000000003 211.1395Q627.1720000000004 210.613 627.1720000000004 209.722Q627.1720000000004 208.831 627.7660000000003 208.3045Q628.3600000000004 207.778 629.3860000000003 207.778Q630.4120000000004 207.778 631.0060000000003 208.3045Q631.6000000000004 208.831 631.6000000000004 209.722Q631.6000000000004 210.613 631.0060000000003 211.1395Q630.4120000000004 211.666 629.3860000000003 211.666Z"/>
  <path fill="#94a3b8" d="M639.0790000000003 229.0V214.15H642.3730000000004V216.931Q642.6430000000004 215.527 643.6960000000004 214.7035Q644.7490000000004 213.88 646.3690000000004 213.88Q648.5560000000004 213.88 649.8655000000003 215.338Q651.1750000000003 216.796 651.1750000000003 219.253V229.0H647.8000000000003V219.658Q647.8000000000003 218.281 647.0845000000004 217.5385Q646.3690000000004 216.796 645.1540000000003 216.796Q643.8850000000003 216.796 643.1695000000003 217.552Q642.4540000000003 218.308 642.4540000000003 219.712V229.0Z"/>
  <path fill="#94a3b8" d="M657.3040000000004 233.86V231.052H661.4890000000004Q662.6770000000004 231.052 663.3250000000004 230.4175Q663.9730000000004 229.783 663.9730000000004 228.703V227.812L664.0270000000004 225.49Q663.5680000000004 226.732 662.5555000000004 227.4205Q661.5430000000003 228.109 660.0850000000004 228.109Q657.8170000000003 228.109 656.4805000000003 226.58350000000002Q655.1440000000003 225.058 655.1440000000003 222.439V219.55Q655.1440000000003 216.958 656.4805000000003 215.41899999999998Q657.8170000000003 213.88 660.0850000000004 213.88Q661.5430000000003 213.88 662.5555000000004 214.5685Q663.5680000000004 215.257 664.0270000000004 216.526V214.15H667.3210000000004V228.784Q667.3210000000004 231.133 665.7685000000004 232.49650000000003Q664.2160000000003 233.86 661.5430000000003 233.86ZM661.2190000000004 225.22Q662.5150000000004 225.22 663.2305000000003 224.4505Q663.9460000000004 223.681 663.9460000000004 222.304V219.712Q663.9460000000004 218.335 663.2305000000003 217.5655Q662.5150000000004 216.796 661.2190000000004 216.796Q659.9230000000003 216.796 659.2210000000003 217.5385Q658.5190000000003 218.281 658.5190000000003 219.604V222.412Q658.5190000000003 223.735 659.2210000000003 224.47750000000002Q659.9230000000003 225.22 661.2190000000004 225.22Z"/>
  <path fill="#94a3b8" d="M673.1800000000004 221.656V218.524H681.8200000000004V221.656Z"/>
  <path fill="#94a3b8" d="M695.1850000000005 229.0Q693.1060000000004 229.0 691.8775000000005 227.7985Q690.6490000000005 226.597 690.6490000000005 224.545V217.201H686.5450000000005V214.15H690.6490000000005V209.965H694.0510000000005V214.15H699.9640000000005V217.201H694.0510000000005V224.464Q694.0510000000005 225.112 694.4155000000005 225.53050000000002Q694.7800000000004 225.949 695.4280000000005 225.949H699.8290000000005V229.0Z"/>
  <path fill="#94a3b8" d="M704.4190000000006 229.0V214.15H707.7130000000005V217.039Q707.9830000000005 215.581 709.0495000000005 214.7305Q710.1160000000006 213.88 711.8170000000006 213.88Q714.0850000000005 213.88 715.3540000000005 215.338Q716.6230000000005 216.796 716.6230000000005 219.415V220.819H713.2480000000005V219.577Q713.2480000000005 218.227 712.5460000000005 217.5115Q711.8440000000005 216.796 710.5480000000006 216.796Q709.1980000000005 216.796 708.4960000000005 217.606Q707.7940000000006 218.416 707.7940000000006 219.901V229.0Z"/>
  <path fill="#94a3b8" d="M726.1270000000005 229.27Q724.2370000000005 229.27 722.8330000000005 228.541Q721.4290000000005 227.812 720.6595000000005 226.4755Q719.8900000000006 225.139 719.8900000000006 223.33V219.82Q719.8900000000006 218.011 720.6595000000005 216.6745Q721.4290000000005 215.338 722.8330000000005 214.60899999999998Q724.2370000000005 213.88 726.1270000000005 213.88Q727.9900000000006 213.88 729.3805000000006 214.60899999999998Q730.7710000000005 215.338 731.5405000000005 216.64749999999998Q732.3100000000005 217.957 732.3100000000005 219.712V222.412H723.1300000000006V223.438Q723.1300000000006 224.95 723.9130000000006 225.71949999999998Q724.6960000000006 226.489 726.1270000000005 226.489Q727.1800000000005 226.489 727.9225000000006 226.1245Q728.6650000000005 225.76 728.8000000000005 225.058H732.1480000000006Q731.7970000000006 226.975 730.1500000000005 228.1225Q728.5030000000006 229.27 726.1270000000005 229.27ZM723.1300000000006 219.712V220.225L729.0700000000006 220.198V219.685Q729.0700000000006 218.14600000000002 728.3140000000005 217.30900000000003Q727.5580000000006 216.472 726.1270000000005 216.472Q724.6420000000006 216.472 723.8860000000006 217.3225Q723.1300000000006 218.173 723.1300000000006 219.712Z"/>
  <path fill="#94a3b8" d="M742.3270000000006 229.27Q740.4370000000006 229.27 739.0330000000006 228.541Q737.6290000000006 227.812 736.8595000000006 226.4755Q736.0900000000006 225.139 736.0900000000006 223.33V219.82Q736.0900000000006 218.011 736.8595000000006 216.6745Q737.6290000000006 215.338 739.0330000000006 214.60899999999998Q740.4370000000006 213.88 742.3270000000006 213.88Q744.1900000000006 213.88 745.5805000000006 214.60899999999998Q746.9710000000006 215.338 747.7405000000006 216.64749999999998Q748.5100000000006 217.957 748.5100000000006 219.712V222.412H739.3300000000006V223.438Q739.3300000000006 224.95 740.1130000000006 225.71949999999998Q740.8960000000006 226.489 742.3270000000006 226.489Q743.3800000000006 226.489 744.1225000000006 226.1245Q744.8650000000006 225.76 745.0000000000006 225.058H748.3480000000006Q747.9970000000006 226.975 746.3500000000006 228.1225Q744.7030000000007 229.27 742.3270000000006 229.27ZM739.3300000000006 219.712V220.225L745.2700000000007 220.198V219.685Q745.2700000000007 218.14600000000002 744.5140000000006 217.30900000000003Q743.7580000000006 216.472 742.3270000000006 216.472Q740.8420000000007 216.472 740.0860000000007 217.3225Q739.3300000000006 218.173 739.3300000000006 219.712Z"/>
  <path fill="#94a3b8" d="M769.2190000000007 229.0V214.15H772.5130000000007V217.039Q772.7830000000007 215.581 773.8495000000007 214.7305Q774.9160000000007 213.88 776.6170000000008 213.88Q778.8850000000007 213.88 780.1540000000007 215.338Q781.4230000000007 216.796 781.4230000000007 219.415V220.819H778.0480000000007V219.577Q778.0480000000007 218.227 777.3460000000007 217.5115Q776.6440000000007 216.796 775.3480000000008 216.796Q773.9980000000007 216.796 773.2960000000007 217.606Q772.5940000000007 218.416 772.5940000000007 219.901V229.0Z"/>
  <path fill="#94a3b8" d="M790.9270000000007 229.27Q789.0370000000007 229.27 787.6330000000007 228.541Q786.2290000000007 227.812 785.4595000000007 226.4755Q784.6900000000007 225.139 784.6900000000007 223.33V219.82Q784.6900000000007 218.011 785.4595000000007 216.6745Q786.2290000000007 215.338 787.6330000000007 214.60899999999998Q789.0370000000007 213.88 790.9270000000007 213.88Q792.7900000000008 213.88 794.1805000000007 214.60899999999998Q795.5710000000007 215.338 796.3405000000007 216.64749999999998Q797.1100000000007 217.957 797.1100000000007 219.712V222.412H787.9300000000007V223.438Q787.9300000000007 224.95 788.7130000000008 225.71949999999998Q789.4960000000008 226.489 790.9270000000007 226.489Q791.9800000000007 226.489 792.7225000000008 226.1245Q793.4650000000007 225.76 793.6000000000007 225.058H796.9480000000008Q796.5970000000008 226.975 794.9500000000007 228.1225Q793.3030000000008 229.27 790.9270000000007 229.27ZM787.9300000000007 219.712V220.225L793.8700000000008 220.198V219.685Q793.8700000000008 218.14600000000002 793.1140000000007 217.30900000000003Q792.3580000000007 216.472 790.9270000000007 216.472Q789.4420000000008 216.472 788.6860000000008 217.3225Q787.9300000000007 218.173 787.9300000000007 219.712Z"/>
  <path fill="#94a3b8" d="M804.9670000000008 229.0 799.9720000000008 214.15H803.5090000000008L806.3710000000008 223.168Q806.6410000000008 223.978 806.8435000000009 224.8015Q807.0460000000008 225.625 807.1270000000007 226.219Q807.2350000000008 225.625 807.4105000000009 224.8015Q807.5860000000008 223.978 807.8290000000007 223.195L810.6640000000008 214.15H814.2280000000007L809.2600000000008 229.0Z"/>
  <path fill="#94a3b8" d="M817.2520000000009 229.0V225.949H822.3280000000009V217.201H817.7920000000008V214.15H825.7030000000009V225.949H830.2660000000009V229.0ZM823.7860000000009 211.666Q822.7600000000009 211.666 822.1660000000008 211.1395Q821.5720000000009 210.613 821.5720000000009 209.722Q821.5720000000009 208.831 822.1660000000008 208.3045Q822.7600000000009 207.778 823.7860000000009 207.778Q824.8120000000009 207.778 825.4060000000009 208.3045Q826.0000000000009 208.831 826.0000000000009 209.722Q826.0000000000009 210.613 825.4060000000009 211.1395Q824.8120000000009 211.666 823.7860000000009 211.666Z"/>
  <path fill="#94a3b8" d="M839.5270000000008 229.27Q837.6370000000009 229.27 836.2330000000009 228.541Q834.8290000000009 227.812 834.0595000000009 226.4755Q833.2900000000009 225.139 833.2900000000009 223.33V219.82Q833.2900000000009 218.011 834.0595000000009 216.6745Q834.8290000000009 215.338 836.2330000000009 214.60899999999998Q837.6370000000009 213.88 839.5270000000008 213.88Q841.3900000000009 213.88 842.7805000000009 214.60899999999998Q844.1710000000008 215.338 844.9405000000008 216.64749999999998Q845.7100000000008 217.957 845.7100000000008 219.712V222.412H836.5300000000009V223.438Q836.5300000000009 224.95 837.3130000000009 225.71949999999998Q838.0960000000009 226.489 839.5270000000008 226.489Q840.5800000000008 226.489 841.3225000000009 226.1245Q842.0650000000009 225.76 842.2000000000008 225.058H845.5480000000009Q845.1970000000009 226.975 843.5500000000009 228.1225Q841.9030000000009 229.27 839.5270000000008 229.27ZM836.5300000000009 219.712V220.225L842.4700000000009 220.198V219.685Q842.4700000000009 218.14600000000002 841.7140000000009 217.30900000000003Q840.9580000000009 216.472 839.5270000000008 216.472Q838.0420000000009 216.472 837.286000000001 217.3225Q836.5300000000009 218.173 836.5300000000009 219.712Z"/>
  <path fill="#94a3b8" d="M850.354000000001 229.0 848.032000000001 214.15H850.705000000001L852.0280000000009 223.249Q852.1360000000009 224.086 852.2170000000009 225.058Q852.2980000000009 226.03 852.3520000000009 226.678Q852.3790000000009 226.03 852.460000000001 225.058Q852.541000000001 224.086 852.7030000000009 223.249L854.3230000000009 214.15H857.1310000000009L858.6970000000009 223.249Q858.859000000001 224.086 858.953500000001 225.07150000000001Q859.0480000000009 226.057 859.1020000000009 226.705Q859.156000000001 226.057 859.223500000001 225.07150000000001Q859.291000000001 224.086 859.426000000001 223.249L860.776000000001 214.15H863.368000000001L860.992000000001 229.0H857.5090000000009L856.1050000000009 219.847Q855.9700000000009 219.091 855.862000000001 218.1055Q855.7540000000009 217.12 855.700000000001 216.499Q855.6730000000009 217.12 855.5380000000009 218.1055Q855.4030000000009 219.091 855.295000000001 219.847L853.8370000000009 229.0Z"/>
</svg>
